<svg width="212" height="66" viewBox="0 0 212 66" fill="none" xmlns="http://www.w3.org/2000/svg">
<path d="M61.6217 46.9192C61.2897 46.1209 60.9785 45.2817 60.6465 44.5653L59.1109 41.147L59.0487 41.0856C54.4836 31.2606 49.6072 21.2719 44.4404 11.4469L44.2329 11.0375C43.7141 10.0755 43.1953 9.01112 42.6558 8.02862C41.9918 6.86191 41.3485 5.61331 40.2903 4.42613C39.2587 3.18395 37.9605 2.18314 36.4892 1.49594C35.018 0.808734 33.4104 0.452271 31.7826 0.452271C30.1547 0.452271 28.5472 0.808734 27.0759 1.49594C25.6047 2.18314 24.3064 3.18395 23.2749 4.42613C22.2996 5.61331 21.5734 6.86191 20.9093 8.02862C20.3906 9.093 19.8718 10.1369 19.3323 11.0989L19.1248 11.5083C14.0409 21.3333 9.08157 31.322 4.51647 41.147L4.39197 41.2698C3.93546 42.3342 3.39595 43.4395 2.87719 44.6267C2.54518 45.3431 2.21317 46.1209 1.88117 46.9806C0.984814 49.2317 0.69858 51.6744 1.05067 54.0679C1.40277 56.4614 2.38104 58.723 3.88907 60.63C5.3971 62.537 7.38285 64.0234 9.6506 64.9428C11.9184 65.8623 14.3898 66.1829 16.8215 65.8732C19.1527 65.5705 21.3975 64.8046 23.4201 63.6217C26.1177 62.1275 28.7115 59.9578 31.6166 56.8261C34.5216 59.9578 37.1777 62.1275 39.813 63.6422C42.3473 65.1095 45.2172 65.9193 48.1547 65.9961C51.5564 66.01 54.8484 64.8094 57.4228 62.6161C59.9973 60.4227 61.6803 57.3847 62.1612 54.0628C62.717 51.6757 62.529 49.1786 61.6217 46.8987V46.9192ZM31.8241 50.317C28.255 45.8139 25.9309 41.6792 25.1424 38.1381C24.8157 36.8259 24.7453 35.4644 24.9349 34.1263C25.0802 33.0823 25.4744 32.1613 26.0139 31.3834C27.259 29.6027 29.4378 28.4974 31.8241 28.4974C32.9573 28.4632 34.0815 28.7072 35.0955 29.2073C36.1096 29.7075 36.982 30.4482 37.6342 31.363C38.1737 32.1817 38.568 33.0823 38.6925 34.1263C38.9 35.3134 38.817 36.6848 38.485 38.1381C37.6965 41.6178 35.3724 45.7934 31.8241 50.317ZM58.2602 53.3464C58.0244 55.0329 57.3448 56.629 56.2889 57.9758C55.2331 59.3225 53.838 60.3729 52.2425 61.0222C50.6655 61.6772 48.9225 61.8614 47.2209 61.6772C45.5609 61.4725 43.9008 60.9403 42.1993 59.9578C39.3741 58.2353 36.8338 56.0953 34.6669 53.6125C39.0245 48.2906 41.6598 43.4395 42.6558 39.1206C43.1331 37.0737 43.1953 35.2316 42.9878 33.5327C42.7287 31.9224 42.12 30.3863 41.2033 29.0295C40.1566 27.5584 38.7596 26.3634 37.135 25.5496C35.5104 24.7359 33.708 24.3283 31.8863 24.3627C28.0475 24.3627 24.6237 26.123 22.5486 29.0091C21.6145 30.3624 21.0108 31.9107 20.7848 33.5327C20.5151 35.252 20.5773 37.1556 21.1168 39.1206C22.1129 43.4395 24.8104 48.352 29.1058 53.6534C26.9757 56.1837 24.4294 58.3425 21.5733 60.0397C19.8511 61.0222 18.2118 61.5339 16.5517 61.7386C13.9701 62.0648 11.3624 61.3727 9.29522 59.8127C7.22809 58.2527 5.86868 55.951 5.5125 53.4078C5.30499 51.7703 5.45024 50.1328 6.11426 48.2906C6.32176 47.6356 6.63302 46.9806 6.96503 46.2028C7.42154 45.1384 7.96105 44.0331 8.47981 42.9278L8.56281 42.7845C13.0449 33.0209 17.942 23.0527 23.0259 13.2891L23.2334 12.8797C23.7521 11.8972 24.2709 10.8533 24.8104 9.87081C25.3499 8.8269 25.9309 7.82394 26.678 7.00519C27.3246 6.24379 28.1325 5.63147 29.0449 5.21134C29.9573 4.79121 30.952 4.57348 31.959 4.57348C32.9659 4.57348 33.9606 4.79121 34.873 5.21134C35.7854 5.63147 36.5933 6.24379 37.2399 7.00519C37.9662 7.82394 38.568 8.8269 39.1075 9.87081C39.6263 10.8533 40.145 11.9177 40.6845 12.8797L40.892 13.2891C45.9551 23.0527 50.8522 33.0209 55.4174 42.7845L55.4796 42.8459C56.0191 43.9103 56.4756 45.0975 56.9944 46.1209C57.3264 46.9192 57.6584 47.5537 57.8659 48.2292C58.2602 50.0714 58.4677 51.7089 58.2602 53.3464ZM87.1448 49.8667C85.5812 49.8893 84.0325 49.5643 82.6135 48.9158C81.1946 48.2674 79.9419 47.3121 78.9484 46.1209C76.7157 43.5827 75.5308 40.31 75.6283 36.9509C75.5941 33.5188 76.8173 30.1898 79.0729 27.5763C80.1162 26.3699 81.415 25.4038 82.8777 24.746C84.3404 24.0882 85.9316 23.7547 87.5391 23.7691C89.0516 23.7282 90.5499 24.0675 91.8929 24.755C93.236 25.4425 94.3798 26.4556 95.2167 27.6991L95.4242 24.4855H101.483V49.2117H95.4035L95.196 45.6092C94.3331 46.9369 93.1405 48.025 91.7314 48.7702C90.3222 49.5153 88.7434 49.8928 87.1448 49.8667ZM88.7218 43.9717C89.9254 43.9717 90.9836 43.6442 91.9797 43.0506C92.8927 42.3956 93.6397 41.5359 94.2207 40.492C94.7395 39.4481 95.0092 38.1995 95.0092 36.8077C95.0901 35.5988 94.8516 34.3899 94.3169 33.2992C93.7822 32.2085 92.9697 31.2733 91.9589 30.5852C90.9876 29.9882 89.8662 29.6718 88.7218 29.6718C87.5775 29.6718 86.456 29.9882 85.4848 30.5852C84.5717 31.2402 83.8247 32.0998 83.2437 33.1437C82.695 34.295 82.425 35.5563 82.4552 36.8281C82.3743 38.037 82.6128 39.2459 83.1475 40.3366C83.6822 41.4273 84.4947 42.3625 85.5055 43.0506C86.4808 43.6442 87.5391 43.9717 88.7218 43.9717ZM111.859 17.8127C111.859 18.5291 111.734 19.1841 111.402 19.7163C111.07 20.228 110.614 20.6988 110.012 21.0263C109.41 21.3538 108.767 21.4766 108.103 21.4766C107.439 21.4766 106.775 21.3538 106.173 21.0263C105.604 20.7137 105.125 20.2628 104.783 19.7163C104.461 19.1332 104.304 18.476 104.326 17.8127C104.326 17.0758 104.471 16.4208 104.783 15.9091C105.115 15.295 105.592 14.9266 106.173 14.5991C106.775 14.2716 107.418 14.1283 108.103 14.1283C108.763 14.1133 109.416 14.2676 109.998 14.5761C110.58 14.8847 111.071 15.3369 111.423 15.8886C111.725 16.4854 111.874 17.1459 111.859 17.8127ZM104.803 49.1298V24.4445H111.402V49.1708H104.783L104.803 49.1298ZM129.04 30.9127V30.9945C128.729 30.8513 128.314 30.7898 128.002 30.7284C127.587 30.6466 127.255 30.6466 126.861 30.6466C125.014 30.6466 123.624 31.1788 122.711 32.2841C121.715 33.4098 121.259 34.9859 121.259 37.0123V49.1503H114.639V24.4241H120.719L120.927 28.1699C121.591 26.8599 122.379 25.8774 123.5 25.1405C124.614 24.4245 125.926 24.067 127.255 24.117C127.733 24.117 128.189 24.158 128.583 24.2399C128.791 24.3013 128.915 24.3013 129.04 24.3627V30.9127ZM131.696 49.1298V14.2921H138.295V27.5967C139.228 26.4095 140.287 25.4884 141.615 24.772C143.717 23.7552 146.106 23.4668 148.395 23.9533C150.684 24.4398 152.74 25.6728 154.231 27.4534C156.469 29.9969 157.654 33.2778 157.551 36.6439C157.585 40.0761 156.362 43.405 154.107 46.0186C153.063 47.225 151.764 48.1911 150.302 48.8488C148.839 49.5066 147.248 49.8401 145.64 49.8258C144.128 49.8666 142.63 49.5273 141.286 48.8398C139.943 48.1524 138.8 47.1393 137.963 45.8958L137.755 49.1094L131.696 49.1708V49.1298ZM144.458 43.9717C145.64 43.9717 146.699 43.6442 147.695 43.0506C148.608 42.3956 149.355 41.5359 149.936 40.492C150.475 39.4481 150.724 38.1995 150.724 36.8077C150.724 35.4362 150.475 34.1877 149.936 33.1437C149.391 32.1372 148.625 31.2631 147.695 30.5852C146.723 29.9882 145.602 29.6718 144.458 29.6718C143.313 29.6718 142.192 29.9882 141.22 30.5852C140.287 31.2402 139.56 32.0998 138.959 33.1437C138.41 34.295 138.14 35.5563 138.17 36.8281C138.089 38.037 138.328 39.2459 138.863 40.3366C139.397 41.4273 140.21 42.3625 141.22 43.0506C142.196 43.6442 143.254 43.9717 144.458 43.9717ZM160.041 49.1503V24.4241H166.121L166.329 27.6377C167.093 26.4058 168.176 25.3977 169.468 24.7176C170.759 24.0374 172.211 23.71 173.674 23.7691C175.347 23.7406 176.991 24.1992 178.401 25.0875C179.811 25.9758 180.924 27.2544 181.601 28.7634C182.327 30.3191 182.721 32.2431 182.721 34.3923V49.2117H176.102V35.252C176.102 33.5327 175.708 32.1817 174.919 31.1788C174.131 30.1963 173.052 29.6641 171.682 29.6641C170.686 29.6641 169.815 29.8688 169.047 30.3191C168.321 30.7898 167.719 31.3834 167.262 32.2227C166.801 33.071 166.572 34.0235 166.598 34.9859V49.1503H160.041ZM186.021 49.1503V14.2716H192.64V27.5763C193.537 26.3824 194.703 25.4112 196.047 24.7397C197.39 24.0682 198.874 23.7148 200.38 23.7077C201.944 23.6851 203.492 24.0101 204.911 24.6585C206.33 25.307 207.583 26.2622 208.576 27.4534C210.798 29.9967 211.975 33.2677 211.876 36.6234C211.912 40.0559 210.688 43.3855 208.431 45.9981C207.388 47.2045 206.089 48.1706 204.626 48.8284C203.164 49.4862 201.573 49.8196 199.965 49.8053C198.452 49.8461 196.954 49.5069 195.611 48.8194C194.268 48.1319 193.124 47.1188 192.287 45.8753L192.101 49.0889L186.021 49.1503ZM198.845 43.9717C200.048 43.9717 201.106 43.6442 202.082 43.0506C203.015 42.3956 203.742 41.5359 204.343 40.492C204.862 39.4481 205.132 38.1995 205.132 36.8077C205.213 35.5988 204.974 34.3899 204.44 33.2992C203.905 32.2085 203.092 31.2733 202.082 30.5852C201.11 29.9882 199.989 29.6718 198.845 29.6718C197.7 29.6718 196.579 29.9882 195.607 30.5852C194.694 31.2402 193.947 32.0998 193.366 33.1437C192.787 34.2847 192.516 35.5536 192.578 36.8281C192.497 38.037 192.736 39.2459 193.27 40.3366C193.805 41.4273 194.617 42.3625 195.628 43.0506C196.603 43.6442 197.6 43.9717 198.845 43.9717Z" fill="#FF385C"/>
</svg>
