<svg width="213" height="66" viewBox="0 0 213 66" fill="none" xmlns="http://www.w3.org/2000/svg">
<g clip-path="url(#clip0_1_159)">
<path fill-rule="evenodd" clip-rule="evenodd" d="M132.093 51.7246C119.793 61.0344 101.966 66.0015 86.6168 66.0015C65.0948 66.0015 45.7194 57.827 31.0612 44.2313C29.9096 43.1622 30.9415 41.7051 32.3235 42.5377C48.1425 51.9895 67.7021 57.6757 87.9066 57.6757C101.533 57.6757 116.523 54.7805 130.306 48.7727C132.388 47.8644 134.129 50.1729 132.093 51.7246Z" fill="#FF9900"/>
<path fill-rule="evenodd" clip-rule="evenodd" d="M137.211 45.7158C135.645 43.6532 126.818 44.7413 122.857 45.2238C121.65 45.3752 121.465 44.2966 122.553 43.5208C129.582 38.4401 141.117 39.9066 142.462 41.6096C143.807 43.3221 142.112 55.1959 135.506 60.8632C134.493 61.7336 133.525 61.27 133.977 60.1157C135.46 56.3123 138.786 47.7878 137.211 45.7158Z" fill="#FF9900"/>
<path fill-rule="evenodd" clip-rule="evenodd" d="M123.124 7.65332V2.71458C123.124 1.96714 123.677 1.4657 124.34 1.4657H145.871C146.562 1.4657 147.115 1.9766 147.115 2.71458V6.94373C147.106 7.65332 146.525 8.58052 145.494 10.047L134.336 26.4054C138.482 26.3014 142.859 26.9352 146.618 29.1113C147.465 29.6033 147.696 30.3224 147.76 31.0319V36.3018C147.76 37.0209 146.986 37.8629 146.175 37.4277C139.551 33.8608 130.752 33.4729 123.428 37.4656C122.682 37.8819 121.899 37.0493 121.899 36.3302V31.3252C121.899 30.521 121.908 29.1492 122.691 27.9287L135.617 8.89274H124.368C123.677 8.89274 123.124 8.3913 123.124 7.65332Z" fill="black"/>
<path fill-rule="evenodd" clip-rule="evenodd" d="M44.582 38.4677H38.0314C37.4049 38.4204 36.9074 37.9379 36.8613 37.3229V2.79899C36.8613 2.10832 37.4233 1.55957 38.1235 1.55957H44.2319C44.8676 1.58793 45.3743 2.08939 45.4204 2.71383V7.22683H45.5402C47.134 2.86521 50.1283 0.831055 54.1637 0.831055C58.2636 0.831055 60.8248 2.86521 62.6675 7.22683C64.2521 2.86521 67.8545 0.831055 71.7148 0.831055C74.4604 0.831055 77.4639 1.99478 79.2973 4.60607C81.3703 7.51066 80.9464 11.7303 80.9464 15.4297L80.9372 37.2188C80.9372 37.9095 80.3752 38.4677 79.675 38.4677H73.1337C72.4795 38.4204 71.9544 37.8811 71.9544 37.2188V18.9209C71.9544 17.4638 72.0834 13.8307 71.7701 12.4494C71.2818 10.1314 69.8169 9.47859 67.919 9.47859C66.3343 9.47859 64.676 10.5666 64.0034 12.3075C63.3308 14.0483 63.3953 16.9624 63.3953 18.9209V37.2188C63.3953 37.9095 62.8333 38.4677 62.1331 38.4677H55.5918C54.9284 38.4204 54.4125 37.8811 54.4125 37.2188L54.4033 18.9209C54.4033 15.0702 55.0205 9.4029 50.3679 9.4029C45.6599 9.4029 45.8442 14.9282 45.8442 18.9209V37.2188C45.8442 37.9095 45.2822 38.4677 44.582 38.4677" fill="black"/>
<path fill-rule="evenodd" clip-rule="evenodd" d="M165.656 0.831055C175.376 0.831055 180.636 9.4029 180.636 20.3022C180.636 30.8325 174.823 39.1868 165.656 39.1868C156.111 39.1868 150.915 30.6149 150.915 19.9332C150.915 9.18529 156.175 0.831055 165.656 0.831055ZM165.711 7.87965C160.883 7.87965 160.579 14.6349 160.579 18.8452C160.579 23.0649 160.515 32.0719 165.656 32.0719C170.732 32.0719 170.972 24.8057 170.972 20.3779C170.972 17.4638 170.852 13.9821 169.995 11.2194C169.258 8.81631 167.793 7.87965 165.711 7.87965Z" fill="black"/>
<path fill-rule="evenodd" clip-rule="evenodd" d="M193.235 38.4677H186.712C186.058 38.4204 185.533 37.8811 185.533 37.2188L185.524 2.68545C185.579 2.05155 186.122 1.55957 186.786 1.55957H192.857C193.429 1.58793 193.898 1.98532 194.027 2.52461V7.80395H194.147C195.981 3.08282 198.551 0.831055 203.075 0.831055C206.014 0.831055 208.879 1.91909 210.722 4.89937C212.435 7.66204 212.435 12.3075 212.435 15.6473V37.3797C212.362 37.9852 211.818 38.4677 211.173 38.4677H204.604C204.005 38.4204 203.508 37.9662 203.443 37.3797V18.6276C203.443 14.8525 203.867 9.32721 199.343 9.32721C197.75 9.32721 196.285 10.4247 195.557 12.0899C194.635 14.1997 194.516 16.3001 194.516 18.6276V37.2188C194.506 37.9095 193.935 38.4677 193.235 38.4677" fill="black"/>
<path fill-rule="evenodd" clip-rule="evenodd" d="M105.96 21.9772C105.96 24.5979 106.024 26.7835 104.734 29.1109C103.693 31.0032 102.035 32.1669 100.201 32.1669C97.6862 32.1669 96.2121 30.1989 96.2121 27.2944C96.2121 21.5609 101.215 20.5201 105.96 20.5201V21.9772ZM112.565 38.3734C112.132 38.7708 111.506 38.7992 111.018 38.5343C108.843 36.6799 108.447 35.8189 107.259 34.0497C103.666 37.8152 101.113 38.9411 96.4608 38.9411C90.9421 38.9411 86.658 35.4499 86.658 28.4581C86.658 22.999 89.5325 19.2807 93.6416 17.4642C97.1979 15.8558 102.164 15.5719 105.96 15.1273V14.2568C105.96 12.6579 106.079 10.7656 105.158 9.38431C104.366 8.14489 102.836 7.63399 101.482 7.63399C98.9852 7.63399 96.7649 8.94909 96.2213 11.6739C96.1107 12.2794 95.6777 12.8755 95.0788 12.9039L88.7309 12.2037C88.1966 12.0808 87.5977 11.6361 87.7543 10.794C89.21 2.88447 96.1752 0.500244 102.403 0.500244C105.591 0.500244 109.755 1.37068 112.271 3.84951C115.458 6.90547 115.154 10.9833 115.154 15.4206V25.9036C115.154 29.0541 116.426 30.4355 117.624 32.1385C118.038 32.744 118.13 33.4725 117.596 33.9267C116.26 35.0715 113.883 37.2002 112.575 38.3923L112.565 38.3734" fill="black"/>
<path fill-rule="evenodd" clip-rule="evenodd" d="M20.0868 21.9772C20.0868 24.5979 20.1513 26.7834 18.8614 29.1109C17.8203 31.0031 16.1712 32.1669 14.3285 32.1669C11.8133 32.1669 10.3484 30.1989 10.3484 27.2944C10.3484 21.5609 15.3512 20.5201 20.0868 20.5201V21.9772ZM26.6926 38.3734C26.2596 38.7708 25.6331 38.7992 25.1448 38.5343C22.9705 36.6799 22.5836 35.8189 21.3858 34.0497C17.7927 37.8152 15.2499 38.9411 10.588 38.9411C5.0785 38.9411 0.785156 35.4499 0.785156 28.4581C0.785156 22.999 3.66888 19.2807 7.76875 17.4642C11.325 15.8558 16.291 15.5719 20.0868 15.1273V14.2568C20.0868 12.6579 20.2066 10.7656 19.2945 9.38431C18.4929 8.14489 16.9635 7.63399 15.6184 7.63399C13.1216 7.63399 10.892 8.94909 10.3484 11.6739C10.2379 12.2794 9.80487 12.8755 9.21523 12.9039L2.85812 12.2037C2.32376 12.0808 1.73411 11.6361 1.88152 10.794C3.34642 2.88447 10.3024 0.500244 16.5305 0.500244C19.7183 0.500244 23.8826 1.37068 26.3978 3.84951C29.5856 6.90547 29.2816 10.9832 29.2816 15.4206V25.9036C29.2816 29.0541 30.553 30.4355 31.7507 32.1385C32.1745 32.744 32.2666 33.4725 31.7323 33.9267C30.3963 35.0715 28.0193 37.2002 26.7111 38.3923L26.6927 38.3734" fill="black"/>
</g>
<defs>
<clipPath id="clip0_1_159">
<rect width="211.655" height="65.4999" fill="white" transform="translate(0.786682 0.500244)"/>
</clipPath>
</defs>
</svg>
